<svg xmlns="http://www.w3.org/2000/svg" fill-rule="evenodd" stroke-width="27" aria-label="Logo" viewBox="0 0 1493 391">
  <!-- 四个六边形背景保持完全不变 -->
  <path fill="#ebb951" stroke="#fcd804" d="M1345.211 24.704l112.262 64.305a43 43 0 0 1 21.627 37.312v142.237a40 40 0 0 1-20.702 35.037l-120.886 66.584a42 42 0 0 1-41.216-.389l-106.242-61.155a57 57 0 0 1-28.564-49.4V138.71a64 64 0 0 1 31.172-54.939l98.01-58.564a54 54 0 0 1 54.54-.503z"/>
  <path fill="#33ba91" stroke="#00a88a" d="M958.07 22.82l117.31 66.78a41 41 0 0 1 20.72 35.64v139.5a45 45 0 0 1-23.1 39.32L955.68 369.4a44 44 0 0 1-43.54-.41l-105.82-61.6a56 56 0 0 1-27.83-48.4V140.07a68 68 0 0 1 33.23-58.44l98.06-58.35a48 48 0 0 1 48.3-.46z"/>
  <path fill="#0594cb" stroke="#0083c0" d="M575.26 20.97l117.23 68.9a40 40 0 0 1 19.73 34.27l.73 138.67a48 48 0 0 1-24.64 42.2l-115.13 64.11a45 45 0 0 1-44.53-.42l-105.83-61.6a55 55 0 0 1-27.33-47.53V136.52a63 63 0 0 1 29.87-53.59l99.3-61.4a49 49 0 0 1 50.6-.56z"/>
  <path fill="#ff4088" stroke="#c9177e" d="M195.81 24.13l114.41 66.54a44 44 0 0 1 21.88 38.04v136.43a48 48 0 0 1-24.45 41.82L194.1 370.9a49 49 0 0 1-48.48-.23L41.05 310.48a53 53 0 0 1-26.56-45.93V135.08a55 55 0 0 1 26.1-46.8l102.8-63.46a51 51 0 0 1 52.42-.69z"/>
  
  <!-- NOTE 字母 -->
  <path fill="#fff" d="
    M93.91 299.92V92.7h43.35l71.92 132.5V92.7h43.48v207.22h-43.35l-71.92-132.5v132.5H93.91z
    
    M557.5 89.15c58.79 0 106.52 47.73 106.52 106.51 0 58.8-47.73 106.52-106.52 106.52-58.78 0-106.52-47.73-106.52-106.52 0-58.78 47.74-106.51 106.52-106.51zm0 39.57c36.95 0 66.94 30 66.94 66.94a66.97 66.97 0 0 1-66.94 66.94c-36.95 0-66.94-29.99-66.94-66.94a66.97 66.97 0 0 1 66.93-66.94h.01z
    
    M875 92.7h156v41.85h-56.5v165.37h-43V134.55H875V92.7z
    
    M1255 299.92V92.7h125v41.85h-81.5v45.36h75v41.85h-75v36.31h81.5v41.85H1255z"/>
</svg>